<svg width="1621" height="225" viewBox="0 0 1621 225" fill="none" xmlns="http://www.w3.org/2000/svg">
<path d="M135.085 65.9091H140.085V60.9091H135.085V65.9091ZM135.085 159V164H140.085V159H135.085ZM115.403 159H110.403V164H115.403V159ZM115.403 65.9091V60.9091H110.403V65.9091H115.403ZM130.085 65.9091V159H140.085V65.9091H130.085ZM135.085 154H115.403V164H135.085V154ZM120.403 159V65.9091H110.403V159H120.403ZM115.403 70.9091H135.085V60.9091H115.403V70.9091ZM229.142 65.9091H234.142V60.9091H229.142V65.9091ZM229.142 159V164H234.142V159H229.142ZM212.142 159L208.029 161.843L209.52 164H212.142V159ZM171.642 100.409L175.755 97.566L174.264 95.4091H171.642V100.409ZM170.96 100.409V95.4091H165.96V100.409H170.96ZM170.96 159V164H175.96V159H170.96ZM151.278 159H146.278V164H151.278V159ZM151.278 65.9091V60.9091H146.278V65.9091H151.278ZM168.551 65.9091L172.674 63.0797L171.184 60.9091H168.551V65.9091ZM208.733 124.455L204.611 127.284L206.1 129.455H208.733V124.455ZM209.551 124.455V129.455H214.551V124.455H209.551ZM209.551 65.9091V60.9091H204.551V65.9091H209.551ZM224.142 65.9091V159H234.142V65.9091H224.142ZM229.142 154H212.142V164H229.142V154ZM216.255 156.157L175.755 97.566L167.529 103.252L208.029 161.843L216.255 156.157ZM171.642 95.4091H170.96V105.409H171.642V95.4091ZM165.96 100.409V159H175.96V100.409H165.96ZM170.96 154H151.278V164H170.96V154ZM156.278 159V65.9091H146.278V159H156.278ZM151.278 70.9091H168.551V60.9091H151.278V70.9091ZM164.429 68.7385L204.611 127.284L212.855 121.625L172.674 63.0797L164.429 68.7385ZM208.733 129.455H209.551V119.455H208.733V129.455ZM214.551 124.455V65.9091H204.551V124.455H214.551ZM209.551 70.9091H229.142V60.9091H209.551V70.9091ZM327.54 98.5V103.5H333.164L332.505 97.9142L327.54 98.5ZM307.631 98.5L302.68 99.199L303.287 103.5H307.631V98.5ZM305.403 91.6364L301.026 94.0535L301.034 94.0675L301.042 94.0814L305.403 91.6364ZM301.085 86.4545L297.937 90.3392L297.937 90.3392L301.085 86.4545ZM294.994 83.1818L293.413 87.9252L293.423 87.9284L293.432 87.9314L294.994 83.1818ZM274.994 85.6364L277.751 89.8075L277.764 89.7994L277.776 89.7912L274.994 85.6364ZM266.676 96L271.259 97.9993L271.264 97.988L266.676 96ZM266.676 129.182L262.093 131.181L262.099 131.194L262.105 131.207L266.676 129.182ZM275.04 139.409L272.332 143.613L272.332 143.613L275.04 139.409ZM294.767 141.818L293.301 137.038L293.292 137.041L293.283 137.043L294.767 141.818ZM300.812 138.773L303.834 142.756L303.856 142.74L303.877 142.723L300.812 138.773ZM305.176 133.818L300.906 131.216L300.892 131.241L300.877 131.265L305.176 133.818ZM307.631 127.182L307.654 122.182L303.466 122.163L302.712 126.282L307.631 127.182ZM327.54 127.273L332.504 127.871L333.176 122.298L327.563 122.273L327.54 127.273ZM323.676 139.636L319.238 137.333L319.235 137.339L319.232 137.346L323.676 139.636ZM315.449 150.227L318.799 153.939L318.801 153.937L315.449 150.227ZM303.176 157.591L304.945 162.268L304.953 162.265L304.961 162.261L303.176 157.591ZM264.858 154.636L262.36 158.968L262.369 158.973L264.858 154.636ZM249.403 138.318L244.981 140.652L244.985 140.659L244.989 140.666L249.403 138.318ZM249.494 86.5455L253.901 88.9081L253.901 88.9081L249.494 86.5455ZM265.04 70.2727L267.514 74.6177L267.522 74.6133L267.529 74.609L265.04 70.2727ZM302.131 66.9091L300.568 71.6587L300.578 71.6617L302.131 66.9091ZM314.449 73.5454L311.293 77.424L311.303 77.4321L311.313 77.4401L314.449 73.5454ZM323.176 84.1364L318.77 86.4992L318.776 86.5116L318.783 86.5239L323.176 84.1364ZM327.54 93.5H307.631V103.5H327.54V93.5ZM312.582 97.801C312.143 94.6936 311.227 91.7995 309.765 89.1913L301.042 94.0814C301.822 95.4732 302.391 97.1549 302.68 99.199L312.582 97.801ZM309.78 89.2192C308.356 86.6397 306.504 84.4099 304.233 82.5699L297.937 90.3392C299.182 91.3477 300.209 92.5724 301.026 94.0535L309.78 89.2192ZM304.233 82.5699C301.971 80.7368 299.395 79.3657 296.557 78.4322L293.432 87.9314C295.2 88.513 296.684 89.3238 297.937 90.3392L304.233 82.5699ZM296.575 78.4384C293.739 77.4928 290.729 77.0455 287.585 77.0455V87.0455C289.775 87.0455 291.704 87.3557 293.413 87.9252L296.575 78.4384ZM287.585 77.0455C281.899 77.0455 276.708 78.472 272.213 81.4815L277.776 89.7912C280.432 88.0129 283.635 87.0455 287.585 87.0455V77.0455ZM272.237 81.4653C267.732 84.443 264.382 88.7186 262.088 94.012L271.264 97.988C272.91 94.1905 275.105 91.557 277.751 89.8075L272.237 81.4653ZM262.093 94.0007C259.777 99.3096 258.722 105.516 258.722 112.455H268.722C268.722 106.484 269.636 101.721 271.259 97.9993L262.093 94.0007ZM258.722 112.455C258.722 119.553 259.771 125.857 262.093 131.181L271.259 127.183C269.642 123.476 268.722 118.628 268.722 112.455H258.722ZM262.105 131.207C264.435 136.467 267.81 140.7 272.332 143.613L277.747 135.206C275.118 133.512 272.918 130.927 271.248 127.157L262.105 131.207ZM272.332 143.613C276.798 146.489 281.896 147.864 287.449 147.864V137.864C283.608 137.864 280.433 136.935 277.747 135.206L272.332 143.613ZM287.449 147.864C290.528 147.864 293.473 147.456 296.251 146.593L293.283 137.043C291.576 137.574 289.643 137.864 287.449 137.864V147.864ZM296.233 146.598C299.023 145.743 301.574 144.471 303.834 142.756L297.791 134.789C296.536 135.741 295.056 136.5 293.301 137.038L296.233 146.598ZM303.877 142.723C306.138 140.97 308.008 138.842 309.475 136.371L300.877 131.265C300.041 132.673 299.003 133.848 297.748 134.822L303.877 142.723ZM309.446 136.42C310.98 133.902 311.997 131.101 312.549 128.082L302.712 126.282C302.356 128.232 301.736 129.855 300.906 131.216L309.446 136.42ZM307.608 132.182L327.517 132.273L327.563 122.273L307.654 122.182L307.608 132.182ZM322.576 126.674C322.135 130.328 321.034 133.874 319.238 137.333L328.114 141.94C330.44 137.459 331.914 132.763 332.504 127.871L322.576 126.674ZM319.232 137.346C317.491 140.723 315.128 143.779 312.097 146.517L318.801 153.937C322.679 150.433 325.801 146.428 328.121 141.927L319.232 137.346ZM312.099 146.516C309.178 149.152 305.632 151.3 301.391 152.92L304.961 162.261C310.235 160.246 314.871 157.484 318.799 153.939L312.099 146.516ZM301.407 152.914C297.338 154.453 292.603 155.273 287.131 155.273V165.273C293.598 165.273 299.56 164.304 304.945 162.268L301.407 152.914ZM287.131 155.273C279.611 155.273 273.061 153.58 267.347 150.3L262.369 158.973C269.746 163.208 278.044 165.273 287.131 165.273V155.273ZM267.356 150.305C261.712 147.05 257.199 142.326 253.818 135.97L244.989 140.666C249.184 148.553 254.974 154.708 262.36 158.968L267.356 150.305ZM253.826 135.985C250.533 129.744 248.767 121.967 248.767 112.455H238.767C238.767 123.184 240.759 132.65 244.981 140.652L253.826 135.985ZM248.767 112.455C248.767 102.92 250.56 95.1398 253.901 88.9081L245.088 84.1828C240.793 92.1936 238.767 101.686 238.767 112.455H248.767ZM253.901 88.9081C257.308 82.5535 261.846 77.8451 267.514 74.6177L262.566 65.9278C255.142 70.1549 249.317 76.295 245.088 84.1828L253.901 88.9081ZM267.529 74.609C273.254 71.3225 279.747 69.6364 287.131 69.6364V59.6364C278.151 59.6364 269.916 61.7078 262.55 65.9365L267.529 74.609ZM287.131 69.6364C292.053 69.6364 296.52 70.3269 300.568 71.6587L303.693 62.1595C298.53 60.4609 292.996 59.6364 287.131 59.6364V69.6364ZM300.578 71.6617C304.665 72.9975 308.221 74.9242 311.293 77.424L317.604 69.6669C313.525 66.3485 308.869 63.851 303.684 62.1564L300.578 71.6617ZM311.313 77.4401C314.349 79.8844 316.833 82.8877 318.77 86.4992L327.583 81.7735C325.034 77.0214 321.7 72.9641 317.584 69.6508L311.313 77.4401ZM318.783 86.5239C320.712 90.0738 322.002 94.235 322.574 99.0858L332.505 97.9142C331.805 91.9771 330.185 86.5625 327.569 81.7488L318.783 86.5239ZM341.653 159H336.653V164H341.653V159ZM341.653 65.9091V60.9091H336.653V65.9091H341.653ZM361.335 65.9091H366.335V60.9091H361.335V65.9091ZM361.335 104.318H356.335V109.318H361.335V104.318ZM401.29 104.318V109.318H406.29V104.318H401.29ZM401.29 65.9091V60.9091H396.29V65.9091H401.29ZM420.926 65.9091H425.926V60.9091H420.926V65.9091ZM420.926 159V164H425.926V159H420.926ZM401.29 159H396.29V164H401.29V159ZM401.29 120.545H406.29V115.545H401.29V120.545ZM361.335 120.545V115.545H356.335V120.545H361.335ZM361.335 159V164H366.335V159H361.335ZM346.653 159V65.9091H336.653V159H346.653ZM341.653 70.9091H361.335V60.9091H341.653V70.9091ZM356.335 65.9091V104.318H366.335V65.9091H356.335ZM361.335 109.318H401.29V99.3182H361.335V109.318ZM406.29 104.318V65.9091H396.29V104.318H406.29ZM401.29 70.9091H420.926V60.9091H401.29V70.9091ZM415.926 65.9091V159H425.926V65.9091H415.926ZM420.926 154H401.29V164H420.926V154ZM406.29 159V120.545H396.29V159H406.29ZM401.29 115.545H361.335V125.545H401.29V115.545ZM356.335 120.545V159H366.335V120.545H356.335ZM361.335 154H341.653V164H361.335V154ZM456.835 65.9091H461.835V60.9091H456.835V65.9091ZM456.835 159V164H461.835V159H456.835ZM437.153 159H432.153V164H437.153V159ZM437.153 65.9091V60.9091H432.153V65.9091H437.153ZM451.835 65.9091V159H461.835V65.9091H451.835ZM456.835 154H437.153V164H456.835V154ZM442.153 159V65.9091H432.153V159H442.153ZM437.153 70.9091H456.835V60.9091H437.153V70.9091ZM473.028 159H468.028V164H473.028V159ZM473.028 65.9091V60.9091H468.028V65.9091H473.028ZM527.756 69.6818L525.498 74.143L525.514 74.1513L525.53 74.1594L527.756 69.6818ZM539.165 80.2727L534.82 82.7472L534.83 82.7643L534.84 82.7813L539.165 80.2727ZM539.119 112.273L543.402 114.854L543.405 114.847L543.409 114.841L539.119 112.273ZM527.528 122.455L525.412 117.924L525.402 117.929L527.528 122.455ZM484.665 126H479.665V131H484.665V126ZM484.665 110.182V105.182H479.665V110.182H484.665ZM515.438 108.636L517.353 113.255L517.353 113.255L515.438 108.636ZM520.983 104L516.701 101.418L516.687 101.442L516.673 101.465L520.983 104ZM520.983 88.5L516.642 90.9807L516.655 91.0039L516.669 91.027L520.983 88.5ZM515.392 83.6818L513.336 88.2393L513.369 88.2544L513.402 88.2689L515.392 83.6818ZM492.71 82V77H487.71V82H492.71ZM492.71 159V164H497.71V159H492.71ZM523.301 116.636L527.689 114.24L526.268 111.636H523.301V116.636ZM546.438 159V164H554.865L550.826 156.603L546.438 159ZM524.71 159L520.3 161.356L521.713 164H524.71V159ZM502.074 116.636V111.636H493.733L497.664 118.993L502.074 116.636ZM478.028 159V65.9091H468.028V159H478.028ZM473.028 70.9091H509.756V60.9091H473.028V70.9091ZM509.756 70.9091C516.202 70.9091 521.387 72.0627 525.498 74.143L530.013 65.2206C524.185 62.2706 517.37 60.9091 509.756 60.9091V70.9091ZM525.53 74.1594C529.697 76.2301 532.736 79.0882 534.82 82.7472L543.51 77.7982C540.381 72.3058 535.814 68.1033 529.981 65.2043L525.53 74.1594ZM534.84 82.7813C536.964 86.4433 538.119 90.896 538.119 96.3182H548.119C548.119 89.4373 546.639 83.193 543.49 77.7641L534.84 82.7813ZM538.119 96.3182C538.119 101.769 536.95 106.163 534.829 109.705L543.409 114.841C546.622 109.474 548.119 103.231 548.119 96.3182H538.119ZM534.837 109.692C532.725 113.196 529.65 115.945 525.412 117.924L529.644 126.985C535.528 124.237 540.18 120.198 543.402 114.854L534.837 109.692ZM525.402 117.929C521.199 119.904 515.875 121 509.256 121V131C516.939 131 523.797 129.732 529.655 126.98L525.402 117.929ZM509.256 121H484.665V131H509.256V121ZM489.665 126V110.182H479.665V126H489.665ZM484.665 115.182H506.074V105.182H484.665V115.182ZM506.074 115.182C510.246 115.182 514.071 114.616 517.353 113.255L513.522 104.018C511.834 104.718 509.417 105.182 506.074 105.182V115.182ZM517.353 113.255C520.709 111.863 523.462 109.648 525.293 106.535L516.673 101.465C516.08 102.473 515.136 103.349 513.522 104.018L517.353 113.255ZM525.265 106.582C527.089 103.557 527.847 100.045 527.847 96.3182H517.847C517.847 98.713 517.362 100.322 516.701 101.418L525.265 106.582ZM527.847 96.3182C527.847 92.5647 527.091 89.0344 525.297 85.973L516.669 91.027C517.36 92.208 517.847 93.8898 517.847 96.3182H527.847ZM525.324 86.0193C523.511 82.847 520.761 80.5603 517.382 79.0947L513.402 88.2689C515.054 88.9852 516.03 89.9106 516.642 90.9807L525.324 86.0193ZM517.448 79.1243C514.117 77.6211 510.221 77 505.983 77V87C509.32 87 511.697 87.5001 513.336 88.2393L517.448 79.1243ZM505.983 77H492.71V87H505.983V77ZM487.71 82V159H497.71V82H487.71ZM492.71 154H473.028V164H492.71V154ZM518.913 119.033L542.049 161.397L550.826 156.603L527.689 114.24L518.913 119.033ZM546.438 154H524.71V164H546.438V154ZM529.12 156.644L506.484 114.28L497.664 118.993L520.3 161.356L529.12 156.644ZM502.074 121.636H523.301V111.636H502.074V121.636ZM576.71 65.9091H581.71V60.9091H576.71V65.9091ZM576.71 159V164H581.71V159H576.71ZM557.028 159H552.028V164H557.028V159ZM557.028 65.9091V60.9091H552.028V65.9091H557.028ZM571.71 65.9091V159H581.71V65.9091H571.71ZM576.71 154H557.028V164H576.71V154ZM562.028 159V65.9091H552.028V159H562.028ZM557.028 70.9091H576.71V60.9091H557.028V70.9091ZM608.949 159V164H612.58L613.704 160.547L608.949 159ZM587.858 159L583.132 157.368L580.842 164H587.858V159ZM619.994 65.9091V60.9091H616.431L615.268 64.2775L619.994 65.9091ZM645.358 65.9091L650.085 64.2796L648.923 60.9091H645.358V65.9091ZM677.449 159V164H684.461L682.176 157.37L677.449 159ZM656.358 159L651.602 160.544L652.724 164H656.358V159ZM633.04 87.1818L637.795 85.6377L636.673 82.1818H633.04V87.1818ZM632.312 87.1818V82.1818H628.681L627.558 85.635L632.312 87.1818ZM607.631 122.409V117.409H602.631V122.409H607.631ZM657.449 122.409H662.449V117.409H657.449V122.409ZM657.449 137.773V142.773H662.449V137.773H657.449ZM607.631 137.773H602.631V142.773H607.631V137.773ZM608.949 154H587.858V164H608.949V154ZM592.584 160.632L624.721 67.5407L615.268 64.2775L583.132 157.368L592.584 160.632ZM619.994 70.9091H645.358V60.9091H619.994V70.9091ZM640.631 67.5386L672.722 160.63L682.176 157.37L650.085 64.2796L640.631 67.5386ZM677.449 154H656.358V164H677.449V154ZM661.114 157.456L637.795 85.6377L628.284 88.7259L651.602 160.544L661.114 157.456ZM633.04 82.1818H632.312V92.1818H633.04V82.1818ZM627.558 85.635L604.194 157.453L613.704 160.547L637.067 88.7286L627.558 85.635ZM607.631 127.409H657.449V117.409H607.631V127.409ZM652.449 122.409V137.773H662.449V122.409H652.449ZM657.449 132.773H607.631V142.773H657.449V132.773ZM612.631 137.773V122.409H602.631V137.773H612.631ZM687.653 159H682.653V164H687.653V159ZM687.653 147.318L683.582 144.416L682.653 145.719V147.318H687.653ZM734.108 82.1364L738.18 85.0383L743.811 77.1364H734.108V82.1364ZM687.562 82.1364H682.562V87.1364H687.562V82.1364ZM687.562 65.9091V60.9091H682.562V65.9091H687.562ZM758.835 65.9091H763.835V60.9091H758.835V65.9091ZM758.835 77.5909L762.906 80.4947L763.835 79.1916V77.5909H758.835ZM712.335 142.773L708.265 139.869L702.626 147.773H712.335V142.773ZM758.926 142.773H763.926V137.773H758.926V142.773ZM758.926 159V164H763.926V159H758.926ZM692.653 159V147.318H682.653V159H692.653ZM691.725 150.22L738.18 85.0383L730.036 79.2345L683.582 144.416L691.725 150.22ZM734.108 77.1364H687.562V87.1364H734.108V77.1364ZM692.562 82.1364V65.9091H682.562V82.1364H692.562ZM687.562 70.9091H758.835V60.9091H687.562V70.9091ZM753.835 65.9091V77.5909H763.835V65.9091H753.835ZM754.765 74.6871L708.265 139.869L716.406 145.676L762.906 80.4947L754.765 74.6871ZM712.335 147.773H758.926V137.773H712.335V147.773ZM753.926 142.773V159H763.926V142.773H753.926ZM758.926 154H687.653V164H758.926V154ZM790.074 159V164H793.705L794.829 160.547L790.074 159ZM768.983 159L764.257 157.368L761.967 164H768.983V159ZM801.119 65.9091V60.9091H797.556L796.393 64.2775L801.119 65.9091ZM826.483 65.9091L831.21 64.2796L830.048 60.9091H826.483V65.9091ZM858.574 159V164H865.586L863.301 157.37L858.574 159ZM837.483 159L832.727 160.544L833.849 164H837.483V159ZM814.165 87.1818L818.92 85.6377L817.798 82.1818H814.165V87.1818ZM813.438 87.1818V82.1818H809.806L808.683 85.635L813.438 87.1818ZM788.756 122.409V117.409H783.756V122.409H788.756ZM838.574 122.409H843.574V117.409H838.574V122.409ZM838.574 137.773V142.773H843.574V137.773H838.574ZM788.756 137.773H783.756V142.773H788.756V137.773ZM790.074 154H768.983V164H790.074V154ZM773.709 160.632L805.846 67.5407L796.393 64.2775L764.257 157.368L773.709 160.632ZM801.119 70.9091H826.483V60.9091H801.119V70.9091ZM821.756 67.5386L853.847 160.63L863.301 157.37L831.21 64.2796L821.756 67.5386ZM858.574 154H837.483V164H858.574V154ZM842.239 157.456L818.92 85.6377L809.409 88.7259L832.727 160.544L842.239 157.456ZM814.165 82.1818H813.438V92.1818H814.165V82.1818ZM808.683 85.635L785.319 157.453L794.829 160.547L818.192 88.7286L808.683 85.635ZM788.756 127.409H838.574V117.409H788.756V127.409ZM833.574 122.409V137.773H843.574V122.409H833.574ZM838.574 132.773H788.756V142.773H838.574V132.773ZM793.756 137.773V122.409H783.756V137.773H793.756Z" fill="white"/>
<path d="M955.128 112.727C955.128 117.803 954.166 122.121 952.242 125.682C950.333 129.242 947.727 131.962 944.424 133.841C941.136 135.705 937.439 136.636 933.333 136.636C929.196 136.636 925.484 135.697 922.196 133.818C918.908 131.939 916.31 129.22 914.401 125.659C912.492 122.098 911.537 117.788 911.537 112.727C911.537 107.652 912.492 103.333 914.401 99.7727C916.31 96.2121 918.908 93.5 922.196 91.6364C925.484 89.7576 929.196 88.8182 933.333 88.8182C937.439 88.8182 941.136 89.7576 944.424 91.6364C947.727 93.5 950.333 96.2121 952.242 99.7727C954.166 103.333 955.128 107.652 955.128 112.727ZM945.151 112.727C945.151 109.439 944.658 106.667 943.674 104.409C942.704 102.152 941.333 100.439 939.56 99.2727C937.787 98.1061 935.712 97.5227 933.333 97.5227C930.954 97.5227 928.878 98.1061 927.105 99.2727C925.333 100.439 923.954 102.152 922.969 104.409C921.999 106.667 921.515 109.439 921.515 112.727C921.515 116.015 921.999 118.788 922.969 121.045C923.954 123.303 925.333 125.015 927.105 126.182C928.878 127.348 930.954 127.932 933.333 127.932C935.712 127.932 937.787 127.348 939.56 126.182C941.333 125.015 942.704 123.303 943.674 121.045C944.658 118.788 945.151 116.015 945.151 112.727ZM1009.32 89.4545H1021.46L1034.28 120.727H1034.82L1047.64 89.4545H1059.78V136H1050.23V105.705H1049.85L1037.8 135.773H1031.3L1019.25 105.591H1018.87V136H1009.32V89.4545ZM1116.42 112.727C1116.42 117.803 1115.46 122.121 1113.53 125.682C1111.62 129.242 1109.02 131.962 1105.71 133.841C1102.43 135.705 1098.73 136.636 1094.62 136.636C1090.49 136.636 1086.77 135.697 1083.49 133.818C1080.2 131.939 1077.6 129.22 1075.69 125.659C1073.78 122.098 1072.83 117.788 1072.83 112.727C1072.83 107.652 1073.78 103.333 1075.69 99.7727C1077.6 96.2121 1080.2 93.5 1083.49 91.6364C1086.77 89.7576 1090.49 88.8182 1094.62 88.8182C1098.73 88.8182 1102.43 89.7576 1105.71 91.6364C1109.02 93.5 1111.62 96.2121 1113.53 99.7727C1115.46 103.333 1116.42 107.652 1116.42 112.727ZM1106.44 112.727C1106.44 109.439 1105.95 106.667 1104.96 104.409C1103.99 102.152 1102.62 100.439 1100.85 99.2727C1099.08 98.1061 1097 97.5227 1094.62 97.5227C1092.24 97.5227 1090.17 98.1061 1088.4 99.2727C1086.62 100.439 1085.24 102.152 1084.26 104.409C1083.29 106.667 1082.8 109.439 1082.8 112.727C1082.8 116.015 1083.29 118.788 1084.26 121.045C1085.24 123.303 1086.62 125.015 1088.4 126.182C1090.17 127.348 1092.24 127.932 1094.62 127.932C1097 127.932 1099.08 127.348 1100.85 126.182C1102.62 125.015 1103.99 123.303 1104.96 121.045C1105.95 118.788 1106.44 116.015 1106.44 112.727ZM1125.57 97.5682V89.4545H1163.8V97.5682H1149.55V136H1139.82V97.5682H1125.57ZM1216.5 112.727C1216.5 117.803 1215.54 122.121 1213.61 125.682C1211.71 129.242 1209.1 131.962 1205.8 133.841C1202.51 135.705 1198.81 136.636 1194.71 136.636C1190.57 136.636 1186.86 135.697 1183.57 133.818C1180.28 131.939 1177.68 129.22 1175.77 125.659C1173.86 122.098 1172.91 117.788 1172.91 112.727C1172.91 107.652 1173.86 103.333 1175.77 99.7727C1177.68 96.2121 1180.28 93.5 1183.57 91.6364C1186.86 89.7576 1190.57 88.8182 1194.71 88.8182C1198.81 88.8182 1202.51 89.7576 1205.8 91.6364C1209.1 93.5 1211.71 96.2121 1213.61 99.7727C1215.54 103.333 1216.5 107.652 1216.5 112.727ZM1206.52 112.727C1206.52 109.439 1206.03 106.667 1205.05 104.409C1204.08 102.152 1202.71 100.439 1200.93 99.2727C1199.16 98.1061 1197.08 97.5227 1194.71 97.5227C1192.33 97.5227 1190.25 98.1061 1188.48 99.2727C1186.71 100.439 1185.33 102.152 1184.34 104.409C1183.37 106.667 1182.89 109.439 1182.89 112.727C1182.89 116.015 1183.37 118.788 1184.34 121.045C1185.33 123.303 1186.71 125.015 1188.48 126.182C1190.25 127.348 1192.33 127.932 1194.71 127.932C1197.08 127.932 1199.16 127.348 1200.93 126.182C1202.71 125.015 1204.08 123.303 1205.05 121.045C1206.03 118.788 1206.52 116.015 1206.52 112.727ZM1270.62 105.75H1260.66C1260.48 104.462 1260.11 103.318 1259.55 102.318C1258.99 101.303 1258.27 100.439 1257.39 99.7273C1256.51 99.0151 1255.5 98.4697 1254.35 98.0909C1253.21 97.7121 1251.97 97.5227 1250.64 97.5227C1248.23 97.5227 1246.13 98.1212 1244.35 99.3182C1242.56 100.5 1241.17 102.227 1240.19 104.5C1239.2 106.758 1238.71 109.5 1238.71 112.727C1238.71 116.045 1239.2 118.833 1240.19 121.091C1241.19 123.348 1242.58 125.053 1244.37 126.205C1246.16 127.356 1248.22 127.932 1250.57 127.932C1251.89 127.932 1253.11 127.758 1254.23 127.409C1255.37 127.061 1256.38 126.553 1257.26 125.886C1258.13 125.205 1258.86 124.379 1259.44 123.409C1260.03 122.439 1260.44 121.333 1260.66 120.091L1270.62 120.136C1270.36 122.273 1269.72 124.333 1268.69 126.318C1267.67 128.288 1266.3 130.053 1264.57 131.614C1262.86 133.159 1260.82 134.386 1258.44 135.295C1256.07 136.189 1253.4 136.636 1250.41 136.636C1246.26 136.636 1242.55 135.697 1239.28 133.818C1236.02 131.939 1233.44 129.22 1231.55 125.659C1229.67 122.098 1228.73 117.788 1228.73 112.727C1228.73 107.652 1229.69 103.333 1231.6 99.7727C1233.51 96.2121 1236.1 93.5 1239.37 91.6364C1242.64 89.7576 1246.32 88.8182 1250.41 88.8182C1253.11 88.8182 1255.61 89.197 1257.91 89.9545C1260.23 90.7121 1262.29 91.8182 1264.07 93.2727C1265.86 94.7121 1267.32 96.4773 1268.44 98.5682C1269.57 100.659 1270.3 103.053 1270.62 105.75ZM1293.28 89.4545V136H1283.44V89.4545H1293.28ZM1348.2 105.75H1338.25C1338.06 104.462 1337.69 103.318 1337.13 102.318C1336.57 101.303 1335.85 100.439 1334.97 99.7273C1334.1 99.0151 1333.08 98.4697 1331.93 98.0909C1330.79 97.7121 1329.56 97.5227 1328.22 97.5227C1325.81 97.5227 1323.72 98.1212 1321.93 99.3182C1320.14 100.5 1318.75 102.227 1317.77 104.5C1316.78 106.758 1316.29 109.5 1316.29 112.727C1316.29 116.045 1316.78 118.833 1317.77 121.091C1318.77 123.348 1320.16 125.053 1321.95 126.205C1323.74 127.356 1325.81 127.932 1328.16 127.932C1329.47 127.932 1330.69 127.758 1331.81 127.409C1332.95 127.061 1333.96 126.553 1334.84 125.886C1335.72 125.205 1336.44 124.379 1337.02 123.409C1337.61 122.439 1338.02 121.333 1338.25 120.091L1348.2 120.136C1347.94 122.273 1347.3 124.333 1346.27 126.318C1345.25 128.288 1343.88 130.053 1342.16 131.614C1340.44 133.159 1338.4 134.386 1336.02 135.295C1333.66 136.189 1330.98 136.636 1328 136.636C1323.85 136.636 1320.13 135.697 1316.86 133.818C1313.6 131.939 1311.03 129.22 1309.13 125.659C1307.25 122.098 1306.31 117.788 1306.31 112.727C1306.31 107.652 1307.27 103.333 1309.18 99.7727C1311.09 96.2121 1313.68 93.5 1316.95 91.6364C1320.22 89.7576 1323.91 88.8182 1328 88.8182C1330.69 88.8182 1333.19 89.197 1335.5 89.9545C1337.81 90.7121 1339.87 91.8182 1341.66 93.2727C1343.44 94.7121 1344.9 96.4773 1346.02 98.5682C1347.16 100.659 1347.88 103.053 1348.2 105.75ZM1361.02 136V89.4545H1370.86V127.886H1390.81V136H1361.02ZM1403.09 136V89.4545H1434.45V97.5682H1412.93V108.659H1432.84V116.773H1412.93V127.886H1434.55V136H1403.09ZM1446.27 97.5682V89.4545H1484.49V97.5682H1470.24V136H1460.52V97.5682H1446.27ZM1498.88 136H1488.34L1504.41 89.4545H1517.09L1533.13 136H1522.59L1510.93 100.091H1510.57L1498.88 136ZM1498.22 117.705H1523.13V125.386H1498.22V117.705Z" fill="white"/>
<rect x="1.5" y="1.5" width="1618" height="222" stroke="white" stroke-width="3"/>
</svg>
